# xmcd CD database file
#
# Track frame offsets:
#	150
#	14904
#	31605
#	42063
#	71234
#	81866
#	95104
#	112790
#	123373
#	136006
#	151691
#	163284
#	180313
#	191047
#	202754
#	215181
#	227413
#	236596
#	250636
#	263054
#	275173
#	288261
#	301783
#	315171
#
# Disc length: 4365 seconds
#
# Revision: 0
# Processed by: cddbd v1.5.2PL0 Copyright (c) Steve Scherf et al.
# Submitted via: CDex 1.51
#
DISCID=3f110b18
DTITLE=Oscar Peterson - with Strings - CD 1
DYEAR=2016
DGENRE=Jazz
TTITLE0=Ruby
TTITLE1=Stars fell on Alabama
TTITLE2=Black coffee
TTITLE3=Laura
TTITLE4=The boy next door
TTITLE5=Our waltz
TTITLE6=Tenderly
TTITLE7=I thought about Yoy
TTITLE8=I only have eyes for You
TTITLE9=Stella by starlight
TTITLE10=A sunday kind of love
TTITLE11=It could happen to You
TTITLE12=Soft sands
TTITLE13=On the outside looking in
TTITLE14=It happens every spring
TTITLE15=Chanel
TTITLE16=You took advantage of  Me
TTITLE17=Why, oh why
TTITLE18=Song to the stars
TTITLE19=Echoes
TTITLE20=I've never left your arms
TTITLE21=I can't started
TTITLE22=Dream on a summer night
TTITLE23=Susquehanna
EXTD=YEAR: 2016
EXTT0=
EXTT1=
EXTT2=
EXTT3=
EXTT4=
EXTT5=
EXTT6=
EXTT7=
EXTT8=
EXTT9=
EXTT10=
EXTT11=
EXTT12=
EXTT13=
EXTT14=
EXTT15=
EXTT16=
EXTT17=
EXTT18=
EXTT19=
EXTT20=
EXTT21=
EXTT22=
EXTT23=
PLAYORDER=
